<svg width="15" height="15" viewBox="0 0 15 15" fill="none" xmlns="http://www.w3.org/2000/svg">
<path d="M0.972159 15C0.72338 15 0.474423 14.9048 0.285081 14.7153C-0.095027 14.3354 -0.095027 13.7211 0.285081 13.3411L13.341 0.28507C13.7209 -0.0948605 14.3352 -0.0948605 14.7151 0.28507C15.0952 0.665 15.0952 1.27929 14.7151 1.65922L1.65924 14.7153C1.46865 14.9057 1.22094 15 0.972159 15Z" fill="white"/>
<path d="M14.0281 15C13.7793 15 13.5305 14.9048 13.341 14.7153L0.285081 1.65922C-0.095027 1.27929 -0.095027 0.665 0.285081 0.28507C0.665011 -0.0948605 1.27913 -0.0948605 1.65924 0.28507L14.7151 13.3411C15.0952 13.7211 15.0952 14.3354 14.7151 14.7153C14.5256 14.9057 14.2768 15 14.0281 15Z" fill="white"/>
</svg>
