<svg width="298" height="58" viewBox="0 0 298 58" fill="none" xmlns="http://www.w3.org/2000/svg">
<path d="M89.2285 40H83.8232L75.2539 31.416H72.5732V27.5781H75.2539L83.8232 18.9941H89.2285L78.4326 29.4971L89.2285 40ZM71.0498 40H67.2412V18.9941H71.0498V40ZM108.228 29.4092C108.228 29.9365 108.135 30.5078 107.949 31.123C107.764 31.7285 107.461 32.2949 107.041 32.8223C106.631 33.3398 106.089 33.7744 105.415 34.126C104.751 34.4775 103.94 34.6533 102.983 34.6533H96.1133V31.0352H102.983C103.501 31.0352 103.901 30.8789 104.185 30.5664C104.468 30.2441 104.609 29.8486 104.609 29.3799C104.609 28.8818 104.448 28.4912 104.126 28.208C103.813 27.9248 103.433 27.7832 102.983 27.7832H96.1133C95.5957 27.7832 95.1953 27.9443 94.9121 28.2666C94.6289 28.5791 94.4873 28.9697 94.4873 29.4385V34.7559C94.4873 35.2637 94.6436 35.6592 94.9561 35.9424C95.2783 36.2256 95.6738 36.3672 96.1426 36.3672H102.983V40H96.1133C95.5859 40 95.0146 39.9072 94.3994 39.7217C93.7939 39.5361 93.2275 39.2383 92.7002 38.8281C92.1826 38.4082 91.748 37.8662 91.3965 37.2021C91.0449 36.5283 90.8691 35.7129 90.8691 34.7559V29.4092C90.8691 28.8818 90.9619 28.3154 91.1475 27.71C91.333 27.0947 91.6309 26.5283 92.041 26.0107C92.4609 25.4834 93.0029 25.0439 93.667 24.6924C94.3408 24.3408 95.1562 24.165 96.1133 24.165H102.983C103.511 24.165 104.077 24.2578 104.683 24.4434C105.298 24.6289 105.864 24.9316 106.382 25.3516C106.909 25.7617 107.349 26.3037 107.7 26.9775C108.052 27.6416 108.228 28.4521 108.228 29.4092ZM124.648 27.9736H116.079C115.562 27.9736 115.171 28.1055 114.907 28.3691C114.644 28.623 114.512 28.999 114.512 29.4971V40H110.703V29.4971C110.703 28.8428 110.786 28.2568 110.952 27.7393C111.118 27.2217 111.338 26.7676 111.611 26.377C111.895 25.9766 112.217 25.6396 112.578 25.3662C112.939 25.083 113.315 24.8535 113.706 24.6777C114.106 24.502 114.507 24.375 114.907 24.2969C115.317 24.209 115.698 24.165 116.05 24.165H124.648V27.9736ZM144.717 40H140.908V31.2109C140.908 30.7129 140.82 30.2686 140.645 29.8779C140.479 29.4775 140.249 29.1357 139.956 28.8525C139.663 28.5693 139.316 28.3545 138.916 28.208C138.525 28.0518 138.101 27.9736 137.642 27.9736H130.977V40H127.168V26.0547C127.168 25.791 127.217 25.5469 127.314 25.3223C127.412 25.0879 127.549 24.8877 127.725 24.7217C127.9 24.5459 128.105 24.4092 128.34 24.3115C128.574 24.2139 128.823 24.165 129.087 24.165H137.671C138.149 24.165 138.652 24.2188 139.18 24.3262C139.717 24.4336 140.244 24.6094 140.762 24.8535C141.289 25.0879 141.787 25.3906 142.256 25.7617C142.734 26.123 143.154 26.5674 143.516 27.0947C143.887 27.6123 144.18 28.2129 144.395 28.8965C144.609 29.5801 144.717 30.3516 144.717 31.2109V40ZM165.093 29.4092C165.093 29.9365 165 30.5078 164.814 31.123C164.629 31.7285 164.326 32.2949 163.906 32.8223C163.496 33.3398 162.954 33.7744 162.28 34.126C161.616 34.4775 160.806 34.6533 159.849 34.6533H152.979V31.0352H159.849C160.366 31.0352 160.767 30.8789 161.05 30.5664C161.333 30.2441 161.475 29.8486 161.475 29.3799C161.475 28.8818 161.313 28.4912 160.991 28.208C160.679 27.9248 160.298 27.7832 159.849 27.7832H152.979C152.461 27.7832 152.061 27.9443 151.777 28.2666C151.494 28.5791 151.353 28.9697 151.353 29.4385V34.7559C151.353 35.2637 151.509 35.6592 151.821 35.9424C152.144 36.2256 152.539 36.3672 153.008 36.3672H159.849V40H152.979C152.451 40 151.88 39.9072 151.265 39.7217C150.659 39.5361 150.093 39.2383 149.565 38.8281C149.048 38.4082 148.613 37.8662 148.262 37.2021C147.91 36.5283 147.734 35.7129 147.734 34.7559V29.4092C147.734 28.8818 147.827 28.3154 148.013 27.71C148.198 27.0947 148.496 26.5283 148.906 26.0107C149.326 25.4834 149.868 25.0439 150.532 24.6924C151.206 24.3408 152.021 24.165 152.979 24.165H159.849C160.376 24.165 160.942 24.2578 161.548 24.4434C162.163 24.6289 162.729 24.9316 163.247 25.3516C163.774 25.7617 164.214 26.3037 164.565 26.9775C164.917 27.6416 165.093 28.4521 165.093 29.4092ZM174.614 40H172.915C172.368 40 171.782 39.9072 171.157 39.7217C170.542 39.5361 169.966 39.2334 169.429 38.8135C168.892 38.3838 168.447 37.832 168.096 37.1582C167.744 36.4746 167.568 35.6396 167.568 34.6533V17.4707H171.377V34.6533C171.377 35.1221 171.523 35.498 171.816 35.7812C172.109 36.0547 172.476 36.1914 172.915 36.1914H174.614V40ZM191.079 21.1035H182.495C181.978 21.1035 181.587 21.2354 181.323 21.499C181.06 21.7529 180.928 22.1289 180.928 22.627V40H177.119V22.627C177.119 21.9727 177.202 21.3867 177.368 20.8691C177.534 20.3516 177.754 19.8975 178.027 19.5068C178.311 19.1064 178.633 18.7695 178.994 18.4961C179.355 18.2129 179.731 17.9834 180.122 17.8076C180.522 17.6318 180.923 17.5049 181.323 17.4268C181.724 17.3389 182.104 17.2949 182.466 17.2949H191.079V21.1035ZM196.558 40H192.749L192.72 27.9736H182.466V24.165H196.587L196.558 40ZM196.558 21.1035H192.749V17.3535H196.558V21.1035ZM217.754 40H213.945V31.2109C213.945 30.7129 213.857 30.2686 213.682 29.8779C213.516 29.4775 213.286 29.1357 212.993 28.8525C212.7 28.5693 212.354 28.3545 211.953 28.208C211.562 28.0518 211.138 27.9736 210.679 27.9736H204.014V40H200.205V26.0547C200.205 25.791 200.254 25.5469 200.352 25.3223C200.449 25.0879 200.586 24.8877 200.762 24.7217C200.938 24.5459 201.143 24.4092 201.377 24.3115C201.611 24.2139 201.86 24.165 202.124 24.165H210.708C211.187 24.165 211.689 24.2188 212.217 24.3262C212.754 24.4336 213.281 24.6094 213.799 24.8535C214.326 25.0879 214.824 25.3906 215.293 25.7617C215.771 26.123 216.191 26.5674 216.553 27.0947C216.924 27.6123 217.217 28.2129 217.432 28.8965C217.646 29.5801 217.754 30.3516 217.754 31.2109V40ZM237.441 34.7559C237.441 35.2832 237.349 35.8545 237.163 36.4697C236.978 37.0752 236.675 37.6416 236.255 38.1689C235.845 38.6865 235.303 39.1211 234.629 39.4727C233.965 39.8242 233.154 40 232.197 40H225.327C224.8 40 224.229 39.9072 223.613 39.7217C223.008 39.5361 222.441 39.2383 221.914 38.8281C221.396 38.4082 220.962 37.8662 220.61 37.2021C220.259 36.5283 220.083 35.7129 220.083 34.7559C220.083 34.2285 220.176 33.6572 220.361 33.042C220.547 32.4268 220.845 31.8604 221.255 31.3428C221.675 30.8154 222.217 30.376 222.881 30.0244C223.555 29.6729 224.37 29.4971 225.327 29.4971H232.197V33.1299H225.327C224.81 33.1299 224.409 33.291 224.126 33.6133C223.843 33.9258 223.701 34.3164 223.701 34.7852C223.701 35.2832 223.862 35.6738 224.185 35.957C224.517 36.2305 224.907 36.3672 225.356 36.3672H232.197C232.715 36.3672 233.115 36.2109 233.398 35.8984C233.682 35.5859 233.823 35.1953 233.823 34.7266V29.4092C233.823 28.9111 233.667 28.5156 233.354 28.2227C233.052 27.9297 232.666 27.7832 232.197 27.7832H223.833V24.165H232.197C232.725 24.165 233.291 24.2578 233.896 24.4434C234.512 24.6289 235.078 24.9316 235.596 25.3516C236.123 25.7617 236.562 26.3037 236.914 26.9775C237.266 27.6416 237.441 28.4521 237.441 29.4092V34.7559ZM258.242 40H254.434V31.2109C254.434 30.7129 254.346 30.2686 254.17 29.8779C254.004 29.4775 253.774 29.1357 253.481 28.8525C253.188 28.5693 252.842 28.3545 252.441 28.208C252.051 28.0518 251.626 27.9736 251.167 27.9736H244.502V40H240.693V26.0547C240.693 25.791 240.742 25.5469 240.84 25.3223C240.938 25.0879 241.074 24.8877 241.25 24.7217C241.426 24.5459 241.631 24.4092 241.865 24.3115C242.1 24.2139 242.349 24.165 242.612 24.165H251.196C251.675 24.165 252.178 24.2188 252.705 24.3262C253.242 24.4336 253.77 24.6094 254.287 24.8535C254.814 25.0879 255.312 25.3906 255.781 25.7617C256.26 26.123 256.68 26.5674 257.041 27.0947C257.412 27.6123 257.705 28.2129 257.92 28.8965C258.135 29.5801 258.242 30.3516 258.242 31.2109V40ZM276.919 40H266.592C266.064 40 265.488 39.9072 264.863 39.7217C264.238 39.5361 263.657 39.2334 263.12 38.8135C262.593 38.3838 262.148 37.832 261.787 37.1582C261.436 36.4746 261.26 35.6396 261.26 34.6533V29.4971C261.26 29.1357 261.299 28.7549 261.377 28.3545C261.465 27.9541 261.597 27.5586 261.772 27.168C261.948 26.7676 262.173 26.3867 262.446 26.0254C262.729 25.6641 263.066 25.3467 263.457 25.0732C263.857 24.7998 264.316 24.5801 264.834 24.4141C265.352 24.248 265.938 24.165 266.592 24.165H276.919V27.9736H266.592C266.094 27.9736 265.713 28.1006 265.449 28.3545C265.195 28.6084 265.068 28.999 265.068 29.5264V34.6533C265.068 35.1514 265.2 35.5322 265.464 35.7959C265.728 36.0596 266.113 36.1914 266.621 36.1914H276.919V40ZM296.987 29.4092C296.987 29.9365 296.895 30.5078 296.709 31.123C296.523 31.7285 296.221 32.2949 295.801 32.8223C295.391 33.3398 294.849 33.7744 294.175 34.126C293.511 34.4775 292.7 34.6533 291.743 34.6533H284.873V31.0352H291.743C292.261 31.0352 292.661 30.8789 292.944 30.5664C293.228 30.2441 293.369 29.8486 293.369 29.3799C293.369 28.8818 293.208 28.4912 292.886 28.208C292.573 27.9248 292.192 27.7832 291.743 27.7832H284.873C284.355 27.7832 283.955 27.9443 283.672 28.2666C283.389 28.5791 283.247 28.9697 283.247 29.4385V34.7559C283.247 35.2637 283.403 35.6592 283.716 35.9424C284.038 36.2256 284.434 36.3672 284.902 36.3672H291.743V40H284.873C284.346 40 283.774 39.9072 283.159 39.7217C282.554 39.5361 281.987 39.2383 281.46 38.8281C280.942 38.4082 280.508 37.8662 280.156 37.2021C279.805 36.5283 279.629 35.7129 279.629 34.7559V29.4092C279.629 28.8818 279.722 28.3154 279.907 27.71C280.093 27.0947 280.391 26.5283 280.801 26.0107C281.221 25.4834 281.763 25.0439 282.427 24.6924C283.101 24.3408 283.916 24.165 284.873 24.165H291.743C292.271 24.165 292.837 24.2578 293.442 24.4434C294.058 24.6289 294.624 24.9316 295.142 25.3516C295.669 25.7617 296.108 26.3037 296.46 26.9775C296.812 27.6416 296.987 28.4521 296.987 29.4092Z" fill="#060B11"/>
<path d="M30.6649 30.665C38.7076 22.6223 38.7076 9.53791 30.6649 1.4952C30.1302 0.960472 29.5736 0.46394 28.9952 0.000147343C28.4169 0.46394 27.8603 0.960472 27.3256 1.4952C26.7254 2.0954 26.1688 2.72834 25.6559 3.38311C26.2343 3.81962 26.7963 4.29978 27.3256 4.82905C33.5295 11.033 33.5295 21.1273 27.3256 27.3312C21.1217 33.5351 11.0274 33.5351 4.82345 27.3312C4.29963 26.8019 3.81947 26.2454 3.38296 25.667C2.72819 26.1799 2.09525 26.731 1.49505 27.3366C0.960324 27.8714 0.463793 28.4279 0 29.0063C0.463793 29.5847 0.960324 30.1412 1.49505 30.676C9.53777 38.7078 22.6222 38.7078 30.6649 30.665Z" fill="url(#paint0_linear)"/>
<path d="M27.3311 27.3311C19.2884 35.3738 19.2884 48.4582 27.3311 56.5009C27.8658 57.0357 28.4224 57.5322 29.0008 57.996C29.5791 57.5322 30.1357 57.0357 30.6704 56.5009C31.2706 55.9007 31.8272 55.2678 32.3401 54.613C31.7617 54.1765 31.1997 53.6964 30.6704 53.1671C24.4665 46.9632 24.4665 36.8689 30.6704 30.6649C36.8743 24.461 46.9686 24.461 53.1726 30.6649C53.7018 31.1942 54.182 31.7508 54.6185 32.3346C55.2733 31.8217 55.9062 31.2706 56.5064 30.6649C57.0411 30.1302 57.5377 29.5737 58.0015 28.9953C57.5377 28.4169 57.0411 27.8604 56.5064 27.3256C48.4637 19.2884 35.3738 19.2884 27.3311 27.3311Z" fill="url(#paint1_linear)"/>
<path d="M27.3311 30.6649C35.3738 38.7076 48.4582 38.7076 56.5009 30.6649C57.0356 30.1302 57.5322 29.5736 57.996 28.9952C57.5322 28.4169 57.0356 27.8603 56.5009 27.3256C55.9007 26.7254 55.2678 26.1688 54.613 25.6559C54.1765 26.2343 53.6963 26.7963 53.1671 27.3256C46.9631 33.5295 36.8688 33.5295 30.6649 27.3256C24.461 21.1217 24.461 11.0274 30.6649 4.82345C31.1942 4.29963 31.7562 3.81947 32.3346 3.38296C31.8217 2.72819 31.2706 2.09525 30.6649 1.49505C30.1302 0.960324 29.5736 0.463793 28.9953 0C28.4169 0.463793 27.8603 0.960324 27.3256 1.49505C19.2883 9.53777 19.2883 22.6222 27.3311 30.6649Z" fill="url(#paint2_linear)"/>
<path d="M30.6649 27.3311C22.6222 19.2884 9.53777 19.2884 1.49505 27.3311C0.960324 27.8659 0.463793 28.4224 0 29.0008C0.463793 29.5792 0.960324 30.1357 1.49505 30.6705C2.09525 31.2707 2.72819 31.8272 3.38296 32.3401C3.81947 31.7563 4.29963 31.1943 4.8289 30.665C11.0328 24.4611 21.1271 24.4611 27.331 30.665C33.535 36.8689 33.535 46.9632 27.331 53.1671C26.8018 53.6964 26.2452 54.1766 25.6614 54.6131C26.1743 55.2679 26.7254 55.9008 27.331 56.501C27.8658 57.0357 28.4223 57.5323 29.0007 57.996C29.5791 57.5323 30.1356 57.0357 30.6704 56.501C38.7076 48.4637 38.7076 35.3739 30.6649 27.3311Z" fill="url(#paint3_linear)"/>
<defs>
<linearGradient id="paint0_linear" x1="18.3485" y1="0.000147343" x2="18.3485" y2="36.6984" gradientUnits="userSpaceOnUse">
<stop stop-color="#FABC45"/>
<stop offset="1" stop-color="#F09E00"/>
</linearGradient>
<linearGradient id="paint1_linear" x1="39.6503" y1="21.2984" x2="39.6503" y2="57.996" gradientUnits="userSpaceOnUse">
<stop stop-color="#FABC45"/>
<stop offset="1" stop-color="#F09E00"/>
</linearGradient>
<linearGradient id="paint2_linear" x1="39.6471" y1="0" x2="39.6471" y2="36.6969" gradientUnits="userSpaceOnUse">
<stop stop-color="#FABC45"/>
<stop offset="1" stop-color="#F09E00"/>
</linearGradient>
<linearGradient id="paint3_linear" x1="18.3488" y1="21.2991" x2="18.3488" y2="57.996" gradientUnits="userSpaceOnUse">
<stop stop-color="#FABC45"/>
<stop offset="1" stop-color="#F09E00"/>
</linearGradient>
</defs>
</svg>
