<svg width="144" height="102" viewBox="0 0 144 102" fill="none" xmlns="http://www.w3.org/2000/svg">
<path d="M7.44788 34.3659C34.4812 17.2727 62.4009 5.31959 90.6615 4.1073C102.945 3.5739 116.934 2.77379 128.717 11.0901C134.308 15.0421 140.012 22.1704 141.047 35.651C142.353 52.7442 135.308 66.2006 129.081 74.0319C107.252 101.478 77.8664 98.7625 53.3671 97.623C39.8902 96.9684 26.2996 94.1801 13.3568 85.6456C9.33419 83.0028 -1.05189 77.3778 3.42526 64.7943C5.73201 58.2965 10.2546 54.2232 13.6182 50.8288C38.6743 25.4435 66.4576 19.5518 93.8773 20.4974C95.275 20.5459 95.275 15.915 93.8773 15.8665C65.7531 14.9209 36.9584 21.0308 11.4478 48.1133C7.39106 52.4047 -2.82457 62.9516 0.743513 76.0686C2.95936 84.2394 8.98193 87.2216 12.8227 89.7431C20.0498 94.471 27.5042 97.4048 35.0039 99.2475C50.9921 103.151 67.2872 102.205 83.3435 100.654C97.2068 99.2959 111.445 96.1682 124.24 83.8514C133.24 75.1957 146.058 56.7447 142.626 31.6504C139.842 11.3083 128.081 5.22261 119.524 2.992C81.7527 -6.92449 43.2196 8.98069 7.33424 33.4446C7.06152 33.6386 7.17516 34.5357 7.44788 34.3659Z" fill="#F30069"/>
<path d="M76.7676 9.15272C83.2378 14.3659 90.008 17.9386 96.797 21.2196C98.9725 22.2768 99.9102 15.7148 97.7159 14.694C90.8519 11.4494 83.9317 8.53297 76.8801 7.36639C76.3175 7.25702 76.3175 8.78817 76.7676 9.15272Z" fill="#F30069"/>
<path d="M79.0931 29.7503C85.0944 27.7817 90.9457 25.412 96.8344 22.3133C98.9537 21.1831 98.0347 14.694 95.9343 15.9335C90.083 19.3968 84.4943 23.4434 78.8493 27.9639C78.2867 28.4379 78.4929 29.9326 79.0931 29.7503Z" fill="#F30069"/>
</svg>
