<svg width="9" height="8" viewBox="0 0 9 8" fill="none" xmlns="http://www.w3.org/2000/svg">
<path d="M8.19289 1.77802C8.20106 1.37065 8.11156 0.958761 8.0389 0.553188C8.01389 0.413578 7.96321 0.278668 7.91328 0.146294C7.87568 0.0466402 7.76464 -0.0168203 7.66236 0.00499379C7.59616 0.0190961 7.53665 0.0328298 7.47894 0.0518173C6.87479 0.250571 6.3154 0.541252 5.778 0.878971C5.7058 0.924289 5.60079 0.94065 5.51362 0.934259C5.3051 0.91902 5.09883 0.867127 4.8904 0.857249C4.37454 0.832808 3.85972 0.848508 3.34854 0.937915C3.27748 0.950328 3.18392 0.938099 3.12489 0.89994C2.53889 0.520759 1.9292 0.19622 1.24336 0.0140113C1.1404 -0.0133485 1.03445 0.00113791 1.00841 0.0420317C0.992513 0.0670411 0.978135 0.0929875 0.970239 0.120808C0.896147 0.381133 0.808338 0.640153 0.765278 0.906023C0.713954 1.22333 0.664595 1.55023 0.688944 1.86715C0.704275 2.06636 0.649264 2.18878 0.540409 2.32858C0.175238 2.79772 0.0108023 3.33699 0.000740132 3.92826C-0.0079087 4.43396 0.0590237 4.92679 0.213028 5.41023C0.448912 6.15098 0.904412 6.70688 1.59027 7.06857C2.15418 7.36593 2.76866 7.48055 3.39744 7.50264C3.96418 7.52248 4.53202 7.50565 5.0994 7.50884C5.66812 7.51204 6.229 7.46136 6.77306 7.28405C7.3176 7.10663 7.78882 6.82036 8.15445 6.37022C8.68254 5.72001 8.84696 4.95406 8.88071 4.14327C8.90658 3.52324 8.78021 2.93997 8.41711 2.43275C8.26988 2.22696 8.18734 2.0502 8.19289 1.77802ZM7.09799 6.52891C6.8541 6.7398 6.55589 6.83964 6.25062 6.9126C5.65165 7.05569 5.04178 7.09133 4.42992 7.06462C3.82512 7.09084 3.22728 7.05314 2.63883 6.91465C2.20476 6.81256 1.80848 6.64089 1.53227 6.2683C1.09275 5.67534 0.980408 4.54687 1.70668 3.93099C1.89188 3.77398 2.09844 3.67432 2.34251 3.65882C2.61187 3.64162 2.88132 3.60805 3.15048 3.61125C3.82947 3.61933 4.50815 3.65309 5.18704 3.65816C5.49711 3.66041 5.80934 3.58811 6.11714 3.60673C6.39683 3.62366 6.69092 3.67517 6.94477 3.78771C7.36793 3.97536 7.59572 4.35585 7.66454 4.80148C7.767 5.46409 7.6318 6.06721 7.09799 6.52891Z" fill="white"/>
<path d="M5.99159 6.10196C6.34898 6.10196 6.6387 5.71475 6.6387 5.23711C6.6387 4.75946 6.34898 4.37225 5.99159 4.37225C5.6342 4.37225 5.34448 4.75946 5.34448 5.23711C5.34448 5.71475 5.6342 6.10196 5.99159 6.10196Z" fill="white"/>
<path d="M2.90385 6.10196C3.26129 6.10196 3.55105 5.71475 3.55105 5.23711C3.55105 4.75946 3.26129 4.37225 2.90385 4.37225C2.54641 4.37225 2.25665 4.75946 2.25665 5.23711C2.25665 5.71475 2.54641 6.10196 2.90385 6.10196Z" fill="white"/>
</svg>
