<svg width="198" height="58" viewBox="0 0 198 58" fill="none" xmlns="http://www.w3.org/2000/svg">
<path d="M68.4991 46.4606V18.8813H74.2698V30.5794L84.8612 18.8813H91.4809L81.5226 30.0602L91.9846 46.4606H85.8254L77.925 33.7383L74.2554 37.7194V46.4606H68.4991Z" fill="white"/>
<path d="M105.972 46.8933C102.188 46.8933 99.1799 45.9701 96.9781 44.1238C94.7764 42.2775 93.6683 39.609 93.6683 36.0895V18.8813H99.4389V35.6712C99.4389 37.7916 100.015 39.3638 101.151 40.4024C102.288 41.4409 103.9 41.9602 105.987 41.9602C108.059 41.9602 109.671 41.4409 110.793 40.4024C111.916 39.3638 112.477 37.7771 112.477 35.6712V18.8813H118.247V36.1039C118.247 39.609 117.154 42.2919 114.952 44.1383C112.75 45.9701 109.757 46.8933 105.972 46.8933Z" fill="white"/>
<path d="M123.14 46.4606V18.8813H135.401C137.502 18.8813 139.243 19.2852 140.61 20.0786C141.977 20.8719 142.985 21.9681 143.647 23.3529C144.309 24.7376 144.625 26.3098 144.625 28.084C144.625 30.8246 143.776 33.0171 142.078 34.6759C140.38 36.3347 138.092 37.1569 135.214 37.1569H127.774V46.4461H123.14V46.4606ZM127.803 33.4931H134.379C136.236 33.4931 137.632 33.0027 138.567 32.0363C139.502 31.0699 139.977 29.7572 139.977 28.0985C139.977 26.3243 139.531 24.954 138.624 23.9875C137.732 23.0211 136.38 22.5307 134.581 22.5307H127.788V33.4931H127.803Z" fill="white"/>
<path d="M144.122 46.4606L154.627 18.8813H159.836L170.255 46.4606H165.463L162.729 39.3494H151.662L148.928 46.4606H144.122ZM152.411 35.7577H161.98L157.188 23.1221L152.411 35.7577Z" fill="white"/>
<path d="M174.831 46.4606V18.8813H185.984C190.056 18.8813 193.078 19.9632 195.036 22.1124C197.007 24.2616 197.986 27.8388 197.986 32.844C197.986 37.5608 197.021 41.0082 195.079 43.1862C193.136 45.3643 190.114 46.4606 185.984 46.4606H174.831ZM179.494 42.8689H185.264C187.063 42.8689 188.56 42.6093 189.754 42.0756C190.949 41.5419 191.841 40.561 192.445 39.1042C193.05 37.6473 193.337 35.5702 193.337 32.8585C193.337 30.1467 193.064 28.0408 192.532 26.5695C191.985 25.0838 191.121 24.0452 189.941 23.4394C188.761 22.8336 187.193 22.5451 185.264 22.5451H179.494V42.8689Z" fill="white"/>
<path d="M54.9432 45.3643H17.9882C14.261 45.3643 11.2534 42.3352 11.2534 38.6138V1.5578C15.0094 1.5578 18.0602 4.61575 18.0602 8.38048V38.5561H54.9576V45.3643H54.9432Z" fill="#F30069"/>
<path d="M56.4974 46.9222H17.9882C13.412 46.9222 9.69922 43.1863 9.69922 38.6138V0H11.2534C15.8584 0 19.6143 3.75031 19.6143 8.3805V36.9983H56.5118V46.9222H56.4974ZM12.7932 3.34643V38.5994C12.7932 41.4698 15.1245 43.7921 17.9738 43.7921H53.389V40.0995H16.4916V8.36608C16.4916 6.01492 14.9374 4.02437 12.7932 3.34643Z" fill="#F30069"/>
<path d="M1.5542 12.6356H38.5236C42.2508 12.6356 45.2584 15.6647 45.2584 19.3862V56.4421C41.5025 56.4421 38.4516 53.3842 38.4516 49.6195V19.4583H1.5542V12.6356Z" fill="#7931E7"/>
<path d="M46.8126 58H45.2584C40.6534 58 36.8974 54.2497 36.8974 49.6195V21.0161H0V11.0778H38.5236C43.0998 11.0778 46.8126 14.8137 46.8126 19.3862V58ZM3.10837 17.9005H40.0058V49.6339C40.0058 51.9851 41.56 53.99 43.6898 54.6535V19.4006C43.6898 16.5302 41.3585 14.2079 38.5092 14.2079H3.10837V17.9005Z" fill="#7931E7"/>
</svg>
